REM GENRE JPop
REM DATE 2001
REM DISCID 2903EC04
REM COMMENT "ExactAudioCopy v0.99pb4"
PERFORMER "ZONE"
TITLE "secret base~君がくれたもの~"
FILE "ZONE - secret base~君がくれたもの~.wav" WAVE
  TRACK 01 AUDIO
    TITLE "secret base~君がくれたもの~"
    PERFORMER "ZONE"
    INDEX 01 00:00:00
  TRACK 02 AUDIO
    TITLE "新?僕はマグマ"
    PERFORMER "ZONE"
    INDEX 00 04:55:05
    INDEX 01 04:56:40
  TRACK 03 AUDIO
    TITLE "secret base~君がくれたもの~(Backing Tracks)"
    PERFORMER "ZONE"
    INDEX 00 08:21:12
    INDEX 01 08:23:47
  TRACK 04 AUDIO
    TITLE "新?僕はマグマ(Backing Tracks)"
    PERFORMER "ZONE"
    INDEX 00 13:18:52
    INDEX 01 13:20:12
